{
    "asset" : {
        "generator" : "Khronos glTF Blender I/O v1.5.17",
        "version" : "2.0"
    },
    "scene" : 0,
    "scenes" : [
        {
            "name" : "Scene",
            "nodes" : [
                0
            ]
        }
    ],
    "nodes" : [
        {
            "mesh" : 0,
            "name" : "pipa",
            "scale" : [
                0.3330087661743164,
                1,
                0.3330087661743164
            ]
        }
    ],
    "meshes" : [
        {
            "name" : "Cylinder",
            "primitives" : [
                {
                    "attributes" : {
                        "POSITION" : 0,
                        "NORMAL" : 1,
                        "TEXCOORD_0" : 2
                    },
                    "indices" : 3
                }
            ]
        }
    ],
    "accessors" : [
        {
            "bufferView" : 0,
            "componentType" : 5126,
            "count" : 3160,
            "max" : [
                5.667731285095215,
                1.303154706954956,
                0.923879861831665
            ],
            "min" : [
                -6.635623931884766,
                -1.418115258216858,
                -0.923879861831665
            ],
            "type" : "VEC3"
        },
        {
            "bufferView" : 1,
            "componentType" : 5126,
            "count" : 3160,
            "type" : "VEC3"
        },
        {
            "bufferView" : 2,
            "componentType" : 5126,
            "count" : 3160,
            "type" : "VEC2"
        },
        {
            "bufferView" : 3,
            "componentType" : 5123,
            "count" : 3414,
            "type" : "SCALAR"
        }
    ],
    "bufferViews" : [
        {
            "buffer" : 0,
            "byteLength" : 37920,
            "byteOffset" : 0
        },
        {
            "buffer" : 0,
            "byteLength" : 37920,
            "byteOffset" : 37920
        },
        {
            "buffer" : 0,
            "byteLength" : 25280,
            "byteOffset" : 75840
        },
        {
            "buffer" : 0,
            "byteLength" : 6828,
            "byteOffset" : 101120
        }
    ],
    "buffers" : [
        {
            "byteLength" : 107948,
            "uri" : "data:application/octet-stream;base64,"
        }
    ]
}
