{
    "asset" : {
        "generator" : "Khronos glTF Blender I/O v1.5.17",
        "version" : "2.0"
    },
    "scene" : 0,
    "scenes" : [
        {
            "name" : "Scene",
            "nodes" : [
                0
            ]
        }
    ],
    "nodes" : [
        {
            "mesh" : 0,
            "name" : "Icosphere",
            "scale" : [
                1.1087568998336792,
                1.1087568998336792,
                1.1087568998336792
            ],
            "translation" : [
                0,
                2.0115482807159424,
                0
            ]
        }
    ],
    "meshes" : [
        {
            "name" : "Icosphere",
            "primitives" : [
                {
                    "attributes" : {
                        "POSITION" : 0,
                        "NORMAL" : 1,
                        "TEXCOORD_0" : 2
                    },
                    "indices" : 3
                }
            ]
        }
    ],
    "accessors" : [
        {
            "bufferView" : 0,
            "componentType" : 5126,
            "count" : 668,
            "max" : [
                0.9510578513145447,
                1.5376182794570923,
                0.9999999403953552
            ],
            "min" : [
                -0.9510578513145447,
                -3.1671037673950195,
                -0.9999999403953552
            ],
            "type" : "VEC3"
        },
        {
            "bufferView" : 1,
            "componentType" : 5126,
            "count" : 668,
            "type" : "VEC3"
        },
        {
            "bufferView" : 2,
            "componentType" : 5126,
            "count" : 668,
            "type" : "VEC2"
        },
        {
            "bufferView" : 3,
            "componentType" : 5123,
            "count" : 948,
            "type" : "SCALAR"
        }
    ],
    "bufferViews" : [
        {
            "buffer" : 0,
            "byteLength" : 8016,
            "byteOffset" : 0
        },
        {
            "buffer" : 0,
            "byteLength" : 8016,
            "byteOffset" : 8016
        },
        {
            "buffer" : 0,
            "byteLength" : 5344,
            "byteOffset" : 16032
        },
        {
            "buffer" : 0,
            "byteLength" : 1896,
            "byteOffset" : 21376
        }
    ],
    "buffers" : [
        {
            "byteLength" : 23272,
            "uri" : "data:application/octet-stream;base64,"
        }
    ]
}
