{
    "asset" : {
        "generator" : "Khronos glTF Blender I/O v1.5.17",
        "version" : "2.0"
    },
    "scene" : 0,
    "scenes" : [
        {
            "name" : "Scene",
            "nodes" : [
                0
            ]
        }
    ],
    "nodes" : [
        {
            "mesh" : 0,
            "name" : "culata"
        }
    ],
    "materials" : [
        {
            "doubleSided" : true,
            "name" : "textura_escopeta",
            "pbrMetallicRoughness" : {
                "baseColorTexture" : {
                    "index" : 0
                },
                "metallicFactor" : 0.10000000149011612,
                "roughnessFactor" : 0.8999999761581421
            }
        }
    ],
    "meshes" : [
        {
            "name" : "Cube.002",
            "primitives" : [
                {
                    "attributes" : {
                        "POSITION" : 0,
                        "NORMAL" : 1,
                        "TEXCOORD_0" : 2
                    },
                    "indices" : 3,
                    "material" : 0
                }
            ]
        }
    ],
    "textures" : [
        {
            "sampler" : 0,
            "source" : 0
        }
    ],
    "images" : [
        {
            "bufferView" : 4,
            "mimeType" : "image/jpeg",
            "name" : "6"
        }
    ],
    "accessors" : [
        {
            "bufferView" : 0,
            "componentType" : 5126,
            "count" : 686,
            "max" : [
                1.6938376426696777,
                0.2404041588306427,
                0.09942153841257095
            ],
            "min" : [
                -1.5857664346694946,
                -0.5374419093132019,
                -0.09942153841257095
            ],
            "type" : "VEC3"
        },
        {
            "bufferView" : 1,
            "componentType" : 5126,
            "count" : 686,
            "type" : "VEC3"
        },
        {
            "bufferView" : 2,
            "componentType" : 5126,
            "count" : 686,
            "type" : "VEC2"
        },
        {
            "bufferView" : 3,
            "componentType" : 5123,
            "count" : 1032,
            "type" : "SCALAR"
        }
    ],
    "bufferViews" : [
        {
            "buffer" : 0,
            "byteLength" : 8232,
            "byteOffset" : 0
        },
        {
            "buffer" : 0,
            "byteLength" : 8232,
            "byteOffset" : 8232
        },
        {
            "buffer" : 0,
            "byteLength" : 5488,
            "byteOffset" : 16464
        },
        {
            "buffer" : 0,
            "byteLength" : 2064,
            "byteOffset" : 21952
        },
        {
            "buffer" : 0,
            "byteLength" : 30033,
            "byteOffset" : 24016
        }
    ],
    "samplers" : [
        {
            "magFilter" : 9728,
            "minFilter" : 9984
        }
    ],
    "buffers" : [
        {
            "byteLength" : 54052,
            "uri" : "data:application/octet-stream;base64,"
        }
    ]
}
