{
    "asset" : {
        "generator" : "Khronos glTF Blender I/O v1.5.17",
        "version" : "2.0"
    },
    "scene" : 0,
    "scenes" : [
        {
            "name" : "Scene",
            "nodes" : [
                0
            ]
        }
    ],
    "nodes" : [
        {
            "mesh" : 0,
            "name" : "LongPistol",
            "translation" : [
                0,
                0.17399275302886963,
                1.5408399105072021
            ]
        }
    ],
    "materials" : [
        {
            "doubleSided" : true,
            "name" : "Main",
            "pbrMetallicRoughness" : {
                "baseColorFactor" : [
                    0.031062303110957146,
                    0.030102159827947617,
                    0.029350290074944496,
                    1
                ],
                "metallicFactor" : 0,
                "roughnessFactor" : 0.5
            }
        },
        {
            "doubleSided" : true,
            "name" : "Barrel",
            "pbrMetallicRoughness" : {
                "baseColorFactor" : [
                    0.15743094682693481,
                    0.024465419352054596,
                    0.016676774248480797,
                    1
                ],
                "metallicFactor" : 0,
                "roughnessFactor" : 0.5
            }
        },
        {
            "doubleSided" : true,
            "name" : "Handle",
            "pbrMetallicRoughness" : {
                "baseColorFactor" : [
                    0.05778678134083748,
                    0.013341126032173634,
                    0.010982384905219078,
                    1
                ],
                "metallicFactor" : 0,
                "roughnessFactor" : 0.5
            }
        },
        {
            "doubleSided" : true,
            "name" : "Detail",
            "pbrMetallicRoughness" : {
                "baseColorFactor" : [
                    0.10653290152549744,
                    0.011504542082548141,
                    0.009315554052591324,
                    1
                ],
                "metallicFactor" : 0,
                "roughnessFactor" : 0.5
            }
        }
    ],
    "meshes" : [
        {
            "name" : "Cube",
            "primitives" : [
                {
                    "attributes" : {
                        "POSITION" : 0,
                        "NORMAL" : 1
                    },
                    "indices" : 2,
                    "material" : 0
                },
                {
                    "attributes" : {
                        "POSITION" : 3,
                        "NORMAL" : 4
                    },
                    "indices" : 5,
                    "material" : 1
                },
                {
                    "attributes" : {
                        "POSITION" : 6,
                        "NORMAL" : 7
                    },
                    "indices" : 8,
                    "material" : 2
                },
                {
                    "attributes" : {
                        "POSITION" : 9,
                        "NORMAL" : 10
                    },
                    "indices" : 11,
                    "material" : 3
                }
            ]
        }
    ],
    "accessors" : [
        {
            "bufferView" : 0,
            "componentType" : 5126,
            "count" : 1734,
            "max" : [
                0.2500564157962799,
                0.7700918912887573,
                0.3833138644695282
            ],
            "min" : [
                -0.2500564157962799,
                -0.2716428339481354,
                -2.134737491607666
            ],
            "type" : "VEC3"
        },
        {
            "bufferView" : 1,
            "componentType" : 5126,
            "count" : 1734,
            "type" : "VEC3"
        },
        {
            "bufferView" : 2,
            "componentType" : 5123,
            "count" : 2778,
            "type" : "SCALAR"
        },
        {
            "bufferView" : 3,
            "componentType" : 5126,
            "count" : 732,
            "max" : [
                0.17351648211479187,
                0.9329543709754944,
                -1.6555455923080444
            ],
            "min" : [
                -0.17351599037647247,
                0.5859221816062927,
                -5.002904415130615
            ],
            "type" : "VEC3"
        },
        {
            "bufferView" : 4,
            "componentType" : 5126,
            "count" : 732,
            "type" : "VEC3"
        },
        {
            "bufferView" : 5,
            "componentType" : 5123,
            "count" : 1140,
            "type" : "SCALAR"
        },
        {
            "bufferView" : 6,
            "componentType" : 5126,
            "count" : 2180,
            "max" : [
                0.20347841084003448,
                1.204967737197876,
                0.4947076439857483
            ],
            "min" : [
                -0.20347841084003448,
                -0.4513671100139618,
                -4.840364456176758
            ],
            "type" : "VEC3"
        },
        {
            "bufferView" : 7,
            "componentType" : 5126,
            "count" : 2180,
            "type" : "VEC3"
        },
        {
            "bufferView" : 8,
            "componentType" : 5123,
            "count" : 3294,
            "type" : "SCALAR"
        },
        {
            "bufferView" : 9,
            "componentType" : 5126,
            "count" : 760,
            "max" : [
                0.3192310631275177,
                1.0315487384796143,
                -2.076559543609619
            ],
            "min" : [
                -0.31923097372055054,
                -0.19333450496196747,
                -4.690419673919678
            ],
            "type" : "VEC3"
        },
        {
            "bufferView" : 10,
            "componentType" : 5126,
            "count" : 760,
            "type" : "VEC3"
        },
        {
            "bufferView" : 11,
            "componentType" : 5123,
            "count" : 1152,
            "type" : "SCALAR"
        }
    ],
    "bufferViews" : [
        {
            "buffer" : 0,
            "byteLength" : 20808,
            "byteOffset" : 0
        },
        {
            "buffer" : 0,
            "byteLength" : 20808,
            "byteOffset" : 20808
        },
        {
            "buffer" : 0,
            "byteLength" : 5556,
            "byteOffset" : 41616
        },
        {
            "buffer" : 0,
            "byteLength" : 8784,
            "byteOffset" : 47172
        },
        {
            "buffer" : 0,
            "byteLength" : 8784,
            "byteOffset" : 55956
        },
        {
            "buffer" : 0,
            "byteLength" : 2280,
            "byteOffset" : 64740
        },
        {
            "buffer" : 0,
            "byteLength" : 26160,
            "byteOffset" : 67020
        },
        {
            "buffer" : 0,
            "byteLength" : 26160,
            "byteOffset" : 93180
        },
        {
            "buffer" : 0,
            "byteLength" : 6588,
            "byteOffset" : 119340
        },
        {
            "buffer" : 0,
            "byteLength" : 9120,
            "byteOffset" : 125928
        },
        {
            "buffer" : 0,
            "byteLength" : 9120,
            "byteOffset" : 135048
        },
        {
            "buffer" : 0,
            "byteLength" : 2304,
            "byteOffset" : 144168
        }
    ],
    "buffers" : [
        {
            "byteLength" : 146472,
            "uri" : "data:application/octet-stream;base64,"
        }
    ]
}
