{
    "asset" : {
        "generator" : "Khronos glTF Blender I/O v1.5.17",
        "version" : "2.0"
    },
    "scene" : 0,
    "scenes" : [
        {
            "name" : "Scene",
            "nodes" : [
                0,
                1,
                2,
                3,
                4,
                5,
                6
            ]
        }
    ],
    "nodes" : [
        {
            "mesh" : 0,
            "name" : "esferaExterior",
            "scale" : [
                80,
                80,
                80
            ],
            "translation" : [
                0,
                6,
                0
            ]
        },
        {
            "mesh" : 1,
            "name" : "esferaInterior",
            "scale" : [
                72,
                72,
                72
            ],
            "translation" : [
                0,
                6,
                0
            ]
        },
        {
            "mesh" : 2,
            "name" : "Cylinder",
            "scale" : [
                1.100000023841858,
                1.100000023841858,
                1.100000023841858
            ],
            "translation" : [
                0,
                -0.5,
                0
            ]
        },
        {
            "mesh" : 3,
            "name" : "Reactor",
            "scale" : [
                0.28086408972740173,
                48.2835578918457,
                0.28086408972740173
            ],
            "translation" : [
                0,
                -0.5,
                0
            ]
        },
        {
            "mesh" : 4,
            "name" : "cueva",
            "scale" : [
                0.7563238143920898,
                0.6684179306030273,
                0.7563238143920898
            ],
            "translation" : [
                0,
                6,
                0
            ]
        },
        {
            "mesh" : 5,
            "name" : "AGUA",
            "scale" : [
                232.82952880859375,
                232.82952880859375,
                232.82952880859375
            ],
            "translation" : [
                0,
                -174,
                0
            ]
        },
        {
            "mesh" : 6,
            "name" : "Cube",
            "rotation" : [
                -0.2588190734386444,
                0,
                0,
                0.965925931930542
            ],
            "scale" : [
                1,
                1,
                100
            ],
            "translation" : [
                0,
                100,
                200
            ]
        }
    ],
    "materials" : [
        {
            "doubleSided" : true,
            "name" : "agua",
            "pbrMetallicRoughness" : {
                "baseColorFactor" : [
                    0.461901992559433,
                    0.9469199776649475,
                    1,
                    1
                ],
                "metallicFactor" : 0.8999999761581421,
                "roughnessFactor" : 0.20000000298023224
            }
        }
    ],
    "meshes" : [
        {
            "name" : "Icosphere",
            "primitives" : [
                {
                    "attributes" : {
                        "POSITION" : 0,
                        "NORMAL" : 1,
                        "TEXCOORD_0" : 2
                    },
                    "indices" : 3
                }
            ]
        },
        {
            "name" : "Icosphere.001",
            "primitives" : [
                {
                    "attributes" : {
                        "POSITION" : 4,
                        "NORMAL" : 5,
                        "TEXCOORD_0" : 6
                    },
                    "indices" : 7
                }
            ]
        },
        {
            "name" : "Cylinder",
            "primitives" : [
                {
                    "attributes" : {
                        "POSITION" : 8,
                        "NORMAL" : 9,
                        "TEXCOORD_0" : 10
                    },
                    "indices" : 11
                }
            ]
        },
        {
            "name" : "Cylinder.001",
            "primitives" : [
                {
                    "attributes" : {
                        "POSITION" : 12,
                        "NORMAL" : 13,
                        "TEXCOORD_0" : 14
                    },
                    "indices" : 15
                }
            ]
        },
        {
            "name" : "Cube.003",
            "primitives" : [
                {
                    "attributes" : {
                        "POSITION" : 16,
                        "NORMAL" : 17,
                        "TEXCOORD_0" : 18
                    },
                    "indices" : 19
                }
            ]
        },
        {
            "name" : "Plane.001",
            "primitives" : [
                {
                    "attributes" : {
                        "POSITION" : 20,
                        "NORMAL" : 21,
                        "TEXCOORD_0" : 22
                    },
                    "indices" : 23,
                    "material" : 0
                }
            ]
        },
        {
            "name" : "Cube.005",
            "primitives" : [
                {
                    "attributes" : {
                        "POSITION" : 24,
                        "NORMAL" : 25,
                        "TEXCOORD_0" : 26
                    },
                    "indices" : 27
                }
            ]
        }
    ],
    "accessors" : [
        {
            "bufferView" : 0,
            "componentType" : 5126,
            "count" : 240,
            "max" : [
                0.9510578513145447,
                1,
                0.9999999403953552
            ],
            "min" : [
                -0.9510578513145447,
                -1,
                -0.9999999403953552
            ],
            "type" : "VEC3"
        },
        {
            "bufferView" : 1,
            "componentType" : 5126,
            "count" : 240,
            "type" : "VEC3"
        },
        {
            "bufferView" : 2,
            "componentType" : 5126,
            "count" : 240,
            "type" : "VEC2"
        },
        {
            "bufferView" : 3,
            "componentType" : 5123,
            "count" : 240,
            "type" : "SCALAR"
        },
        {
            "bufferView" : 4,
            "componentType" : 5126,
            "count" : 960,
            "max" : [
                0.9706341028213501,
                1,
                0.9999999403953552
            ],
            "min" : [
                -0.9706341028213501,
                -1,
                -0.9999999403953552
            ],
            "type" : "VEC3"
        },
        {
            "bufferView" : 5,
            "componentType" : 5126,
            "count" : 960,
            "type" : "VEC3"
        },
        {
            "bufferView" : 6,
            "componentType" : 5126,
            "count" : 960,
            "type" : "VEC2"
        },
        {
            "bufferView" : 7,
            "componentType" : 5123,
            "count" : 960,
            "type" : "SCALAR"
        },
        {
            "bufferView" : 8,
            "componentType" : 5126,
            "count" : 80,
            "max" : [
                43.301273345947266,
                0.5,
                50
            ],
            "min" : [
                -43.301273345947266,
                -0.5,
                -50
            ],
            "type" : "VEC3"
        },
        {
            "bufferView" : 9,
            "componentType" : 5126,
            "count" : 80,
            "type" : "VEC3"
        },
        {
            "bufferView" : 10,
            "componentType" : 5126,
            "count" : 80,
            "type" : "VEC2"
        },
        {
            "bufferView" : 11,
            "componentType" : 5123,
            "count" : 144,
            "type" : "SCALAR"
        },
        {
            "bufferView" : 12,
            "componentType" : 5126,
            "count" : 290,
            "max" : [
                46.151580810546875,
                7.944093704223633,
                53.29125213623047
            ],
            "min" : [
                -46.151580810546875,
                -7.944093704223633,
                -53.29125213623047
            ],
            "type" : "VEC3"
        },
        {
            "bufferView" : 13,
            "componentType" : 5126,
            "count" : 290,
            "type" : "VEC3"
        },
        {
            "bufferView" : 14,
            "componentType" : 5126,
            "count" : 290,
            "type" : "VEC2"
        },
        {
            "bufferView" : 15,
            "componentType" : 5123,
            "count" : 456,
            "type" : "SCALAR"
        },
        {
            "bufferView" : 16,
            "componentType" : 5126,
            "count" : 2904,
            "max" : [
                320,
                315.6707763671875,
                311
            ],
            "min" : [
                -318,
                -377.0096435546875,
                -318
            ],
            "type" : "VEC3"
        },
        {
            "bufferView" : 17,
            "componentType" : 5126,
            "count" : 2904,
            "type" : "VEC3"
        },
        {
            "bufferView" : 18,
            "componentType" : 5126,
            "count" : 2904,
            "type" : "VEC2"
        },
        {
            "bufferView" : 19,
            "componentType" : 5123,
            "count" : 4356,
            "type" : "SCALAR"
        },
        {
            "bufferView" : 20,
            "componentType" : 5126,
            "count" : 4,
            "max" : [
                1,
                0,
                1
            ],
            "min" : [
                -1,
                0,
                -1
            ],
            "type" : "VEC3"
        },
        {
            "bufferView" : 21,
            "componentType" : 5126,
            "count" : 4,
            "type" : "VEC3"
        },
        {
            "bufferView" : 22,
            "componentType" : 5126,
            "count" : 4,
            "type" : "VEC2"
        },
        {
            "bufferView" : 23,
            "componentType" : 5123,
            "count" : 6,
            "type" : "SCALAR"
        },
        {
            "bufferView" : 24,
            "componentType" : 5126,
            "count" : 334,
            "max" : [
                2,
                -0.13339471817016602,
                2.665405511856079
            ],
            "min" : [
                -2,
                -33.97404479980469,
                -1.7138721942901611
            ],
            "type" : "VEC3"
        },
        {
            "bufferView" : 25,
            "componentType" : 5126,
            "count" : 334,
            "type" : "VEC3"
        },
        {
            "bufferView" : 26,
            "componentType" : 5126,
            "count" : 334,
            "type" : "VEC2"
        },
        {
            "bufferView" : 27,
            "componentType" : 5123,
            "count" : 648,
            "type" : "SCALAR"
        }
    ],
    "bufferViews" : [
        {
            "buffer" : 0,
            "byteLength" : 2880,
            "byteOffset" : 0
        },
        {
            "buffer" : 0,
            "byteLength" : 2880,
            "byteOffset" : 2880
        },
        {
            "buffer" : 0,
            "byteLength" : 1920,
            "byteOffset" : 5760
        },
        {
            "buffer" : 0,
            "byteLength" : 480,
            "byteOffset" : 7680
        },
        {
            "buffer" : 0,
            "byteLength" : 11520,
            "byteOffset" : 8160
        },
        {
            "buffer" : 0,
            "byteLength" : 11520,
            "byteOffset" : 19680
        },
        {
            "buffer" : 0,
            "byteLength" : 7680,
            "byteOffset" : 31200
        },
        {
            "buffer" : 0,
            "byteLength" : 1920,
            "byteOffset" : 38880
        },
        {
            "buffer" : 0,
            "byteLength" : 960,
            "byteOffset" : 40800
        },
        {
            "buffer" : 0,
            "byteLength" : 960,
            "byteOffset" : 41760
        },
        {
            "buffer" : 0,
            "byteLength" : 640,
            "byteOffset" : 42720
        },
        {
            "buffer" : 0,
            "byteLength" : 288,
            "byteOffset" : 43360
        },
        {
            "buffer" : 0,
            "byteLength" : 3480,
            "byteOffset" : 43648
        },
        {
            "buffer" : 0,
            "byteLength" : 3480,
            "byteOffset" : 47128
        },
        {
            "buffer" : 0,
            "byteLength" : 2320,
            "byteOffset" : 50608
        },
        {
            "buffer" : 0,
            "byteLength" : 912,
            "byteOffset" : 52928
        },
        {
            "buffer" : 0,
            "byteLength" : 34848,
            "byteOffset" : 53840
        },
        {
            "buffer" : 0,
            "byteLength" : 34848,
            "byteOffset" : 88688
        },
        {
            "buffer" : 0,
            "byteLength" : 23232,
            "byteOffset" : 123536
        },
        {
            "buffer" : 0,
            "byteLength" : 8712,
            "byteOffset" : 146768
        },
        {
            "buffer" : 0,
            "byteLength" : 48,
            "byteOffset" : 155480
        },
        {
            "buffer" : 0,
            "byteLength" : 48,
            "byteOffset" : 155528
        },
        {
            "buffer" : 0,
            "byteLength" : 32,
            "byteOffset" : 155576
        },
        {
            "buffer" : 0,
            "byteLength" : 12,
            "byteOffset" : 155608
        },
        {
            "buffer" : 0,
            "byteLength" : 4008,
            "byteOffset" : 155620
        },
        {
            "buffer" : 0,
            "byteLength" : 4008,
            "byteOffset" : 159628
        },
        {
            "buffer" : 0,
            "byteLength" : 2672,
            "byteOffset" : 163636
        },
        {
            "buffer" : 0,
            "byteLength" : 1296,
            "byteOffset" : 166308
        }
    ],
    "buffers" : [
        {
            "byteLength" : 167604,
            "uri" : "data:application/octet-stream;base64,"
        }
    ]
}
